<svg width="442" height="282" viewBox="0 0 442 282" fill="none" xmlns="http://www.w3.org/2000/svg">
    <g clip-path="url(#clip0_45_225)">
        <path
            d="M404.309 98.6684C403.845 99.0278 403.381 99.3715 402.906 99.7101H285.716C284.843 99.3715 283.974 99.0243 283.109 98.6684C270.737 93.5922 259.222 86.8329 248.931 78.6061C242.097 73.1478 235.811 67.5125 231.253 62.2313C224.895 54.8616 219.04 46.8304 216.316 37.6795C213.598 28.5285 214.41 18.0391 220.481 10.4506C222.361 8.11628 224.672 6.12081 227.304 4.56003C227.74 4.29962 228.182 4.04963 228.635 3.81525C235.916 -0.0388723 245.102 -0.976368 253.3 1.0184C265.039 3.87775 274.795 11.862 281.755 21.2265C288.716 30.5858 293.235 41.3357 297.687 51.9658C302.206 32.992 315.889 15.9974 334.373 7.35688C352.851 -1.28366 375.81 -1.17949 393.896 8.17979C399.586 11.1425 404.727 14.9598 409.115 19.4818C409.551 19.9245 409.977 20.3776 410.396 20.8359C419.218 30.466 424.737 42.7992 425.19 55.5178C425.77 71.9031 417.716 88.3612 404.309 98.6684Z"
            fill="#F2F2F2" />
        <path
            d="M290.401 99.7102H288.743C288.722 99.3612 288.694 99.0174 288.661 98.6685C288.081 91.8558 286.869 85.1043 285.037 78.4916C280.834 63.3948 273.654 49.1787 263.874 36.5857C254.121 23.9525 241.826 13.2527 227.69 5.09647C227.587 5.04061 227.498 4.96327 227.431 4.87031C227.364 4.77736 227.321 4.67124 227.304 4.56001C227.277 4.41457 227.294 4.26488 227.354 4.12838C227.414 3.99188 227.513 3.87419 227.641 3.78904C227.769 3.70389 227.92 3.65477 228.077 3.64742C228.233 3.64007 228.388 3.67479 228.525 3.74752C228.563 3.76824 228.6 3.79084 228.635 3.81523C236.644 8.41755 244.078 13.8544 250.798 20.0234C262.818 31.0786 272.511 44.1788 279.363 58.6324C285.409 71.2911 289.112 84.8319 290.312 98.6685C290.346 99.0174 290.373 99.3664 290.401 99.7102Z"
            fill="white" />
        <path
            d="M410.396 20.8359C410.384 20.8418 410.371 20.8453 410.358 20.8463C409.148 21.0546 407.932 21.2734 406.728 21.5078C396.842 23.4219 387.165 26.1923 377.82 29.7837C368.499 33.3701 359.534 37.7274 351.028 42.8044C342.511 47.8789 334.48 53.6437 327.026 60.0335C319.571 66.414 312.733 73.4067 306.592 80.9291C302.002 86.5652 297.828 92.4923 294.102 98.6685C293.892 99.0123 293.687 99.3612 293.483 99.7102H291.588C291.787 99.3612 291.991 99.0123 292.201 98.6685C296.71 91.1008 301.88 83.9006 307.658 77.1427C314.047 69.6636 321.129 62.7353 328.821 56.4397C336.464 50.1797 344.666 44.5546 353.337 39.6274C362.044 34.6802 371.198 30.4694 380.693 27.0442C389.906 23.7232 399.419 21.1922 409.115 19.4817C409.385 19.4349 409.65 19.388 409.921 19.3411C410.954 19.164 411.396 20.6328 410.396 20.8359Z"
            fill="white" />
        <path
            d="M109.201 102.806C112.148 97.5613 112.635 90.7298 108.97 85.9033C106.789 83.0303 103.383 81.1443 99.8097 80.0806C96.2361 79.0168 92.4661 78.7042 88.7287 78.4457C85.0289 78.1898 81.2634 77.9849 77.6493 78.7738C74.0352 79.5628 70.5345 81.4901 68.774 84.5687C65.7998 89.7694 68.5091 96.4381 66.3246 101.976C64.3199 107.058 58.6144 110.029 53.0057 111.228C47.397 112.427 41.5429 112.3 35.9315 113.487C30.32 114.675 24.605 117.618 22.5647 122.688C21.0893 126.354 21.8224 130.576 23.7665 134.043C25.7105 137.509 28.7552 140.315 31.9871 142.783C36.8084 146.464 42.4491 149.617 48.6441 149.936C55.1716 150.272 61.5541 147.343 66.2523 143.057C70.9504 138.771 74.1489 133.233 76.7044 127.56C78.3255 123.961 79.8572 120.088 83.1059 117.658C85.4931 115.872 88.5294 115.089 91.474 114.349L94.8083 113.511C97.8296 112.766 100.657 111.446 103.117 109.632C105.577 107.818 107.618 105.548 109.113 102.963C109.142 102.911 109.172 102.859 109.201 102.806Z"
            fill="#2F2E41" />
        <path d="M82.9059 275.344H76.1339L72.9116 250.715H82.9076L82.9059 275.344Z" fill="#FFB8B8" />
        <path
            d="M71.296 273.519H84.3572V281.272H63.0723C63.0723 280.254 63.285 279.246 63.6983 278.305C64.1115 277.364 64.7173 276.51 65.4809 275.79C66.2446 275.07 67.1512 274.499 68.1489 274.109C69.1467 273.719 70.216 273.519 71.296 273.519Z"
            fill="#2F2E41" />
        <path d="M139.252 275.344H132.48L129.258 250.715H139.254L139.252 275.344Z" fill="#FFB8B8" />
        <path
            d="M127.643 273.519H140.704V281.272H119.419C119.419 280.254 119.632 279.246 120.045 278.305C120.458 277.364 121.064 276.51 121.828 275.79C122.591 275.07 123.498 274.499 124.496 274.109C125.493 273.719 126.563 273.519 127.643 273.519Z"
            fill="#2F2E41" />
        <path
            d="M95.9248 255.768C95.8303 255.768 95.7359 255.764 95.6419 255.754L68.0889 252.971C67.7229 252.934 67.3695 252.824 67.0522 252.648C66.7349 252.472 66.461 252.235 66.2486 251.951C66.0362 251.668 65.8903 251.345 65.8206 251.004C65.7509 250.664 65.7589 250.313 65.8442 249.975L90.2403 162.492C90.3545 162.046 90.5985 161.64 90.9445 161.319C91.2906 160.997 91.725 160.774 92.1988 160.673L114.83 154.725C115.284 154.631 115.756 154.653 116.198 154.788C116.64 154.924 117.035 155.169 117.343 155.497C131.894 170.971 142.859 205.273 151.166 248.509C151.228 248.835 151.22 249.17 151.141 249.493C151.062 249.816 150.914 250.121 150.706 250.388C150.498 250.656 150.235 250.881 149.932 251.049C149.629 251.217 149.293 251.326 148.944 251.368L126.368 254.086C125.728 254.164 125.079 254.014 124.551 253.664C124.022 253.315 123.651 252.791 123.512 252.197L112.528 206.026C112.426 205.601 112.174 205.222 111.811 204.952C111.449 204.681 111 204.537 110.538 204.542C110.076 204.547 109.63 204.701 109.274 204.979C108.919 205.257 108.675 205.642 108.585 206.069L98.4587 253.804C98.3441 254.357 98.0285 254.857 97.5661 255.215C97.1037 255.574 96.5234 255.769 95.9248 255.768Z"
            fill="#2F2E41" />
        <path
            d="M91.7337 114.819C99.227 114.819 105.302 109.092 105.302 102.027C105.302 94.9624 99.227 89.2352 91.7337 89.2352C84.2403 89.2352 78.1658 94.9624 78.1658 102.027C78.1658 109.092 84.2403 114.819 91.7337 114.819Z"
            fill="#FFB8B8" />
        <path
            d="M91.3547 162.738C90.7843 162.737 90.2301 162.559 89.7784 162.231C89.3266 161.902 89.0027 161.442 88.857 160.922L80.6947 132.011C80.1055 129.934 80.3495 127.725 81.3799 125.806C82.4103 123.888 84.1548 122.395 86.2796 121.613C92.8501 119.195 99.1099 118.298 104.885 118.946C110.018 119.523 116.35 148.174 115.931 148.785L117.957 154.514C118.072 154.839 118.113 155.183 118.078 155.524C118.042 155.865 117.932 156.195 117.752 156.493C117.573 156.791 117.329 157.05 117.037 157.253C116.745 157.456 116.41 157.599 116.055 157.673L91.9177 162.679C91.7328 162.718 91.5441 162.737 91.3547 162.738Z"
            fill="#CCCCCC" />
        <path
            d="M98.6699 192.303C98.7862 191.734 98.7687 191.148 98.6187 190.586C98.4688 190.024 98.1899 189.5 97.8018 189.051C97.4138 188.602 96.926 188.238 96.3727 187.986C95.8194 187.733 95.2142 187.598 94.5996 187.59L89.897 174.221L85.0906 179.969L90.2932 191.784C90.3474 192.758 90.7788 193.68 91.5056 194.374C92.2324 195.068 93.2041 195.487 94.2367 195.552C95.2692 195.616 96.2908 195.32 97.1079 194.722C97.925 194.123 98.4807 193.263 98.6699 192.303Z"
            fill="#FFB8B8" />
        <path
            d="M159.13 160.172C158.849 159.657 158.451 159.207 157.965 158.852C157.478 158.498 156.916 158.248 156.316 158.121C155.716 157.994 155.095 157.992 154.494 158.116C153.894 158.24 153.33 158.486 152.841 158.838L140.381 151.066L140.37 158.386L152.204 164.644C152.885 165.378 153.828 165.852 154.855 165.974C155.881 166.097 156.92 165.86 157.774 165.309C158.627 164.758 159.237 163.93 159.487 162.984C159.737 162.037 159.61 161.037 159.13 160.172Z"
            fill="#FFB8B8" />
        <path
            d="M88.8105 186.126C88.2656 186.127 87.7345 185.965 87.2928 185.664C86.851 185.363 86.5212 184.938 86.3501 184.451L75.3256 162.463C74.8735 161.175 74.6432 159.826 74.6436 158.469L77.9581 129.89C77.9579 128.29 78.6055 126.75 79.7687 125.585C80.9318 124.42 82.5228 123.717 84.2168 123.621C85.9109 123.524 87.5802 124.04 88.884 125.065C90.1878 126.089 91.0279 127.544 91.2326 129.132L86.1615 161.752L94.2538 181.773C94.3818 182.305 94.3164 182.863 94.0682 183.357C93.8199 183.85 93.4032 184.251 92.8847 184.494L89.969 185.869C89.6093 186.038 89.2127 186.127 88.8105 186.126Z"
            fill="#CCCCCC" />
        <path
            d="M147.689 163.059C147.283 163.059 146.883 162.969 146.521 162.797L124.597 152.356C123.311 151.744 122.139 150.942 121.123 149.98L99.7237 129.74C98.5257 128.607 97.8315 127.085 97.783 125.486C97.7345 123.886 98.3352 122.33 99.4626 121.134C100.59 119.938 102.159 119.193 103.849 119.05C105.54 118.908 107.224 119.379 108.558 120.368L131.739 144.64L150.114 155.64C150.603 155.932 150.975 156.37 151.168 156.885C151.362 157.4 151.367 157.961 151.182 158.478L150.146 161.393C149.973 161.878 149.643 162.3 149.202 162.599C148.761 162.898 148.232 163.059 147.689 163.059Z"
            fill="#CCCCCC" />
        <path
            d="M76.3008 95.4134C78.6055 98.256 81.9185 100.222 85.6339 100.95C89.3999 101.684 93.3195 101.155 96.7154 99.4535C99.448 98.0615 101.635 95.9723 103.776 93.9154C104.67 93.057 105.622 92.067 105.577 90.8959C105.508 89.0815 103.194 88.0895 101.208 87.6938C94.6907 86.4119 87.9088 87.131 81.8558 89.7458C79.16 90.9264 76.3513 93.0624 76.7561 95.7175"
            fill="#2F2E41" />
        <path
            d="M432.609 98.6684H166.344C163.855 98.6718 161.468 99.6057 159.708 101.265C157.947 102.925 156.957 105.175 156.953 107.523V204.397C156.957 206.744 157.947 208.994 159.708 210.654C161.468 212.314 163.855 213.247 166.344 213.251H432.609C435.098 213.247 437.485 212.314 439.245 210.654C441.006 208.994 441.996 206.744 442 204.397V107.523C441.996 105.175 441.006 102.925 439.245 101.265C437.485 99.6057 435.098 98.6718 432.609 98.6684ZM440.895 204.397C440.892 206.468 440.019 208.454 438.465 209.918C436.912 211.383 434.806 212.207 432.609 212.209H166.344C164.148 212.207 162.042 211.383 160.488 209.918C158.935 208.454 158.061 206.468 158.058 204.397V107.523C158.061 105.451 158.935 103.466 160.488 102.001C162.042 100.537 164.148 99.7126 166.344 99.7101H432.609C434.806 99.7126 436.912 100.537 438.465 102.001C440.019 103.466 440.892 105.451 440.895 107.523V204.397Z"
            fill="#3F3D56" />
        <path
            d="M214.688 186.168C208.351 186.168 202.157 184.396 196.888 181.077C191.619 177.757 187.512 173.039 185.087 167.52C182.662 162 182.028 155.926 183.264 150.066C184.5 144.206 187.552 138.824 192.033 134.599C196.513 130.375 202.222 127.498 208.438 126.332C214.653 125.166 221.095 125.765 226.95 128.051C232.804 130.337 237.808 134.209 241.329 139.177C244.849 144.145 246.728 149.985 246.728 155.96C246.719 163.968 243.34 171.647 237.333 177.31C231.327 182.973 223.183 186.159 214.688 186.168ZM214.688 126.793C208.57 126.793 202.589 128.504 197.502 131.709C192.414 134.913 188.449 139.469 186.108 144.798C183.766 150.128 183.154 155.992 184.347 161.65C185.541 167.307 188.487 172.504 192.814 176.583C197.14 180.662 202.652 183.44 208.653 184.566C214.654 185.691 220.874 185.113 226.527 182.906C232.179 180.698 237.011 176.96 240.41 172.164C243.809 167.367 245.624 161.728 245.624 155.96C245.614 148.227 242.352 140.813 236.553 135.346C230.753 129.878 222.89 126.802 214.688 126.793Z"
            fill="#3F3D56" />
        <path
            d="M408.847 136.689H281.239C279.456 136.69 277.742 137.342 276.457 138.508C275.171 139.674 274.415 141.264 274.345 142.944C274.336 143.029 274.332 143.114 274.334 143.199C274.337 144.925 275.065 146.58 276.36 147.8C277.654 149.021 279.409 149.707 281.239 149.71H408.847C410.679 149.71 412.435 149.024 413.73 147.803C415.025 146.582 415.753 144.926 415.753 143.199C415.753 141.473 415.025 139.817 413.73 138.596C412.435 137.375 410.679 136.689 408.847 136.689Z"
            fill="#B799FF" />
        <path
            d="M408.847 162.209H281.239C279.456 162.21 277.742 162.862 276.457 164.028C275.171 165.194 274.415 166.784 274.345 168.465C274.336 168.549 274.332 168.635 274.334 168.72C274.337 170.446 275.065 172.1 276.36 173.321C277.654 174.541 279.409 175.228 281.239 175.23H408.847C410.679 175.23 412.435 174.544 413.73 173.323C415.025 172.102 415.753 170.446 415.753 168.72C415.753 166.993 415.025 165.337 413.73 164.116C412.435 162.895 410.679 162.209 408.847 162.209Z"
            fill="#B799FF" />
        <path
            d="M211.114 169.158C210.22 169.16 209.35 168.887 208.635 168.382L208.59 168.35L199.252 161.61C198.82 161.297 198.457 160.907 198.184 160.463C197.911 160.018 197.734 159.527 197.663 159.018C197.591 158.509 197.627 157.991 197.767 157.495C197.908 156.999 198.151 156.533 198.482 156.126C198.814 155.718 199.227 155.376 199.699 155.119C200.17 154.861 200.691 154.694 201.231 154.627C201.771 154.56 202.32 154.593 202.846 154.726C203.373 154.858 203.866 155.087 204.299 155.4L210.347 159.773L224.641 142.198C224.972 141.79 225.385 141.448 225.857 141.191C226.329 140.934 226.85 140.767 227.39 140.7C227.93 140.633 228.479 140.666 229.005 140.799C229.531 140.932 230.025 141.161 230.457 141.474L230.368 141.587L230.459 141.475C231.332 142.107 231.902 143.04 232.046 144.068C232.19 145.096 231.896 146.136 231.227 146.959L214.415 167.632C214.026 168.108 213.526 168.494 212.953 168.758C212.381 169.023 211.752 169.16 211.114 169.158Z"
            fill="#B799FF" />
        <path
            d="M211.023 282H0.552416C0.405906 282 0.265397 281.945 0.161798 281.847C0.0582004 281.75 0 281.617 0 281.479C0 281.341 0.0582004 281.209 0.161798 281.111C0.265397 281.013 0.405906 280.958 0.552416 280.958H211.023C211.169 280.958 211.31 281.013 211.413 281.111C211.517 281.209 211.575 281.341 211.575 281.479C211.575 281.617 211.517 281.75 211.413 281.847C211.31 281.945 211.169 282 211.023 282Z"
            fill="#3F3D56" />
        <path
            d="M377.442 75.2049C365.902 73.7084 354.183 73.9575 342.726 75.9429C331.302 77.9119 320.274 81.5472 310.038 86.718C304.285 89.6323 298.825 93.0333 293.725 96.879C292.892 97.5065 294.072 98.6057 294.897 97.9838C303.846 91.2724 313.877 85.9558 324.61 82.2363C335.258 78.5234 346.45 76.3827 357.791 75.8899C364.208 75.6121 370.638 75.8871 377.002 76.7116C377.213 76.7594 377.436 76.7296 377.626 76.6283C377.815 76.527 377.956 76.3618 378.021 76.1659C378.078 75.9662 378.05 75.7533 377.941 75.5733C377.833 75.3934 377.654 75.2611 377.442 75.2049Z"
            fill="white" />
    </g>
    <defs>
        <clipPath id="clip0_45_225">
            <rect width="442" height="282" fill="white" />
        </clipPath>
    </defs>
</svg>